<?xml version="1.0" encoding="UTF-8"?>
<svg width="512" height="512" viewBox="0 0 512 512" fill="none" xmlns="http://www.w3.org/2000/svg">
  <!-- Background -->
  <rect width="512" height="512" rx="128" fill="#319795"/>
  
  <!-- Letters "OB" -->
  <g fill="#FFFFFF">
    <!-- O -->
    <path d="M160 256C160 207.4 199.4 168 248 168C296.6 168 336 207.4 336 256C336 304.6 296.6 344 248 344C199.4 344 160 304.6 160 256ZM248 216C225.9 216 208 233.9 208 256C208 278.1 225.9 296 248 296C270.1 296 288 278.1 288 256C288 233.9 270.1 216 248 216Z"/>
    
    <!-- B -->
    <path d="M288 168H384V344H288C239.4 344 200 304.6 200 256C200 207.4 239.4 168 288 168ZM288 216C261.5 216 240 233.9 240 256C240 278.1 261.5 296 288 296H336V216H288Z"/>
  </g>
</svg> 